Coordinates
version=1
nRows=14
nColumns=46
inDegrees=yes

Units are S.I. units (second, meters, Newtons, ...)
Angles are in degrees.

endheader
time	pelvis_tilt	pelvis_list	pelvis_rotation	pelvis_tx	pelvis_ty	pelvis_tz	bb_angle	bb_tx	bb_ty	bb_tz	hip_flexion_r	hip_adduction_r	hip_rotation_r	knee_angle_r	knee_angle_r_beta	ankle_angle_r	subtalar_angle_r	mtp_angle_r	crank_angle_r	hip_flexion_l	hip_adduction_l	hip_rotation_l	knee_angle_l	knee_angle_l_beta	ankle_angle_l	subtalar_angle_l	mtp_angle_l	crank_angle_l	lumbar_extension	lumbar_bending	lumbar_rotation	arm_flex_r	arm_add_r	arm_rot_r	elbow_flex_r	pro_sup_r	wrist_flex_r	wrist_dev_r	arm_flex_l	arm_add_l	arm_rot_l	elbow_flex_l	pro_sup_l	wrist_flex_l	wrist_dev_l
      5.00000000	    -31.69241125	     11.03253720	      6.69502144	      0.35170482	      1.08965412	     -0.22455512	      0.00000000	      0.50000000	      0.00000000	      0.25000000	     34.95346461	    -18.04996606	     -3.81316720	     23.59326873	      0.41178022	    -39.41571025	     -5.80940348	      0.00000000	      0.00000000	     84.64730101	      6.73542183	     -4.72330158	    103.68725857	      1.80968405	      6.80225069	    -12.29696491	      0.00000000	      0.00000000	    -47.86806691	     -3.38199060	    -16.45196435	     42.87680546	    -12.83128444	     26.07517325	     85.46916225	     51.74706197	      0.00000000	      0.00000000	     37.21104055	    -30.17490689	     19.42762642	     87.85438498	     52.68389870	      0.00000000	      0.00000000
      5.00500000	    -31.73034042	     10.71507856	      6.89876661	      0.35074435	      1.09184040	     -0.22501804	      0.00000000	      0.50000000	      0.00000000	      0.25000000	     35.24602651	    -17.65966209	     -2.31536205	     25.27182526	      0.44107656	    -39.31976145	     -6.32876187	      0.00000000	      0.00000000	     84.31856189	      6.67618756	     -4.68804982	    101.95090556	      1.77937898	      7.61150167	    -12.52386736	      0.00000000	      0.00000000	    -48.08619135	     -2.73832772	    -16.55504871	     43.44073738	    -12.60457909	     26.15398346	     85.34565938	     51.73464354	      0.00000000	      0.00000000	     37.28273306	    -30.34357424	     19.22238835	     88.01330897	     52.68833056	      0.00000000	      0.00000000
      5.01000000	    -31.85343648	     10.52576082	      6.93925088	      0.34985061	      1.09374020	     -0.22496002	      0.00000000	      0.50000000	      0.00000000	      0.25000000	     35.88458916	    -17.22802023	     -0.63690635	     27.26977068	      0.47594728	    -39.25145344	     -7.27289515	      0.00000000	      0.00000000	     83.90428946	      6.47209045	     -4.78483542	    100.01933570	      1.74566672	      8.28818416	    -12.58020698	      0.00000000	      0.00000000	    -48.15396704	     -2.14468936	    -18.63129492	     45.91056418	    -10.29625331	     28.63372862	     81.98412361	     51.60703690	      0.00000000	      0.00000000	     34.11719453	    -32.42536548	     15.52980242	     90.93424785	     52.84874798	      0.00000000	      0.00000000
      5.01500000	    -31.80543394	     10.18733726	      7.04903068	      0.34927087	      1.09590113	     -0.22524726	      0.00000000	      0.50000000	      0.00000000	      0.25000000	     36.36591340	    -16.77773329	      0.62214951	     29.36699455	      0.51255075	    -39.14440820	     -7.82143448	      0.00000000	      0.00000000	     83.20563716	      6.26693490	     -4.84736624	     97.95780672	      1.70968626	      8.84533456	    -12.73330034	      0.00000000	      0.00000000	    -48.44205473	     -1.53023973	    -18.55857818	     46.28204855	    -10.14552250	     28.60438609	     82.07345631	     51.62379347	      0.00000000	      0.00000000	     34.27139312	    -32.45493187	     15.34075002	     90.97984784	     52.83463742	      0.00000000	      0.00000000
      5.02000000	    -31.75881004	      9.85074782	      7.00921904	      0.34869288	      1.09784303	     -0.22540184	      0.00000000	      0.50000000	      0.00000000	      0.25000000	     37.01205245	    -16.24282057	      1.82259515	     31.59830663	      0.55149449	    -39.05777051	     -8.40400855	      0.00000000	      0.00000000	     82.40892523	      5.91683270	     -4.95141578	     95.79175319	      1.67188149	      9.32492479	    -12.88578492	      0.00000000	      0.00000000	    -48.74723522	     -1.02031542	    -18.44686135	     46.67181279	     -9.97258631	     28.60467287	     82.14094075	     51.63770581	      0.00000000	      0.00000000	     34.32002228	    -32.50094783	     15.12136596	     91.03879570	     52.82143941	      0.00000000	      0.00000000
      5.02500000	    -31.75346611	      9.58014560	      6.90119133	      0.34814154	      1.09954205	     -0.22554786	      0.00000000	      0.50000000	      0.00000000	      0.25000000	     37.82790899	    -15.69874596	      3.10300415	     33.94755307	      0.59249657	    -39.07061794	     -8.65958735	      0.00000000	      0.00000000	     81.54540005	      5.52840002	     -5.14353940	     93.49669263	      1.63182513	      9.69418031	    -12.90689868	      0.00000000	      0.00000000	    -48.96551646	     -0.49873821	    -19.19992345	     47.69429934	     -8.76526593	     29.33947121	     80.92308915	     51.66122099	      0.00000000	      0.00000000	     32.68567317	    -33.20833005	     12.90899641	     92.48478286	     52.86929339	      0.00000000	      0.00000000
      5.03000000	    -31.60004364	      9.01500504	      6.98071152	      0.34779716	      1.10143225	     -0.22623138	      0.00000000	      0.50000000	      0.00000000	      0.25000000	     38.32109069	    -15.06434666	      3.72744781	     36.04644618	      0.62912917	    -39.05870998	     -8.80783678	      0.00000000	      0.00000000	     80.48942528	      5.14142613	     -5.20224026	     91.14499609	      1.59078028	      9.90535003	    -12.86597567	      0.00000000	      0.00000000	    -49.27885672	      0.37763614	    -18.86776306	     47.96515450	     -8.66912901	     29.33310386	     80.97683348	     51.66894442	      0.00000000	      0.00000000	     32.63530157	    -33.17691814	     12.84496499	     92.48525483	     52.86380994	      0.00000000	      0.00000000
      5.03500000	    -31.39966888	      8.67115013	      6.81555819	      0.34732859	      1.10277089	     -0.22627547	      0.00000000	      0.50000000	      0.00000000	      0.25000000	     39.10391925	    -14.46157650	      4.48460145	     38.60785217	      0.67383414	    -38.97472300	     -9.40199700	      0.00000000	      0.00000000	     79.28390574	      4.77995487	     -5.19952787	     88.72424126	      1.54853014	     10.21298080	    -12.72705845	      0.00000000	      0.00000000	    -49.67509136	      0.81629316	    -18.64396879	     48.47454977	     -8.51128598	     29.31729513	     81.12151170	     51.69022581	      0.00000000	      0.00000000	     32.65990871	    -33.20671941	     12.54207918	     92.56203010	     52.84535008	      0.00000000	      0.00000000
      5.04000000	    -31.36539244	      8.20110504	      6.62708970	      0.34730776	      1.10359037	     -0.22673546	      0.00000000	      0.50000000	      0.00000000	      0.25000000	     40.00063282	    -13.77172161	      5.01787544	     41.06156936	      0.71665958	    -38.90358067	     -9.93168732	      0.00000000	      0.00000000	     78.16314964	      4.31204552	     -5.20146549	     86.27867534	      1.50584696	     10.49877729	    -12.34586238	      0.00000000	      0.00000000	    -49.76562168	      1.36111700	    -18.35116597	     48.76864168	     -8.36523411	     29.37038874	     81.22902014	     51.71472371	      0.00000000	      0.00000000	     32.42186633	    -33.15039849	     12.23600240	     92.65846147	     52.83416444	      0.00000000	      0.00000000
      5.04500000	    -31.13571906	      7.76933899	      6.51841560	      0.34670544	      1.10476107	     -0.22705856	      0.00000000	      0.50000000	      0.00000000	      0.25000000	     40.76890228	    -13.15231179	      5.48384425	     43.54672616	      0.76003375	    -38.86353359	    -10.36233153	      0.00000000	      0.00000000	     76.77982298	      3.93383582	     -5.16469873	     83.63554993	      1.45971572	     10.59685590	    -11.77874406	      0.00000000	      0.00000000	    -50.13212505	      1.97806853	    -18.08880140	     49.13708139	     -8.14984034	     29.40278767	     81.33325202	     51.73482400	      0.00000000	      0.00000000	     32.26815935	    -33.14146531	     11.79691127	     92.80479877	     52.81626110	      0.00000000	      0.00000000
      5.05000000	    -30.98475128	      7.30633244	      6.24735633	      0.34650377	      1.10531074	     -0.22724776	      0.00000000	      0.50000000	      0.00000000	      0.25000000	     41.63263849	    -12.39677678	      5.92400616	     46.07589788	      0.80417612	    -38.75748927	    -11.03801593	      0.00000000	      0.00000000	     75.40632497	      3.32207100	     -5.20436545	     81.00234850	      1.41375768	     10.80149129	    -10.88051738	      0.00000000	      0.00000000	    -50.43189602	      2.61710428	    -18.75728197	     50.03155425	     -7.03410471	     30.38376894	     80.70732522	     51.79034134	      0.00000000	      0.00000000	     29.71412834	    -33.28292305	      8.08732143	     94.93304391	     52.83820369	      0.00000000	      0.00000000
      5.05500000	    -30.82764195	      6.74881830	      6.05721092	      0.34620294	      1.10560613	     -0.22772350	      0.00000000	      0.50000000	      0.00000000	      0.25000000	     42.51696487	    -11.64812549	      6.15879044	     48.69367263	      0.84986491	    -38.51902753	    -11.58610998	      0.00000000	      0.00000000	     74.02162409	      2.80600168	     -5.12476806	     78.31449281	      1.36684575	     10.59743520	    -10.33931766	      0.00000000	      0.00000000	    -50.63146924	      3.22239870	    -18.30316847	     50.44547551	     -6.89621485	     30.43518646	     80.67710762	     51.79010123	      0.00000000	      0.00000000	     29.53616418	    -33.25435770	      7.97017803	     94.99675597	     52.84065057	      0.00000000	      0.00000000
      5.06000000	    -30.73531503	      6.18591979	      5.87541928	      0.34594413	      1.10546758	     -0.22840880	      0.00000000	      0.50000000	      0.00000000	      0.25000000	     43.50632925	    -10.96345520	      6.25166471	     51.39374030	      0.89698998	    -38.12804729	    -12.22324138	      0.00000000	      0.00000000	     72.64686503	      2.30751320	     -5.08208252	     75.57428260	      1.31902006	     10.35508191	     -9.60285308	      0.00000000	      0.00000000	    -50.73467742	      3.83553226	    -17.86271530	     50.75650319	     -6.79615220	     30.56355855	     80.68864100	     51.80555025	      0.00000000	      0.00000000	     29.26221377	    -33.13539984	      7.74341175	     95.10413548	     52.84052219	      0.00000000	      0.00000000
      5.06500000	    -30.66067608	      5.66326293	      5.67058264	      0.34578414	      1.10509096	     -0.22878846	      0.00000000	      0.50000000	      0.00000000	      0.25000000	     44.52022950	    -10.29495520	      6.31319584	     54.11684627	      0.94451715	    -37.58147986	    -12.88904106	      0.00000000	      0.00000000	     71.23210495	      1.81487033	     -5.02041223	     72.80002167	      1.27060007	     10.05859609	     -8.91811025	      0.00000000	      0.00000000	    -50.79590980	      4.30191268	    -17.45879805	     50.95447501	     -6.71954694	     30.76805460	     80.75068128	     51.83875388	      0.00000000	      0.00000000	     28.87263735	    -32.93985166	      7.47436248	     95.26787577	     52.84716438	      0.00000000	      0.00000000
